<?xml version="1.0" encoding="utf-8"?>
<!-- Generator: Adobe Illustrator 21.0.2, SVG Export Plug-In . SVG Version: 6.00 Build 0)  -->
<svg version="1.1" id="Layer_1" xmlns="http://www.w3.org/2000/svg" xmlns:xlink="http://www.w3.org/1999/xlink" x="0px" y="0px"
	 viewBox="0 0 665 125" style="enable-background:new 0 0 665 125;" xml:space="preserve">
<style type="text/css">
	.st0{fill:#00B564;}
	.st1{fill:#FF7500;}
	.st2{fill:#FFFFFF;}
</style>
<g>
	<path class="st0" d="M54.6,21.4c0,0,9.5-25.3,32.4-15.2C87,6.1,80.4,33.3,54.6,21.4z"/>
	<path class="st0" d="M58,22.1c0,0,0-15.4-14.2-14.6C43.8,7.5,41.8,23.3,58,22.1z"/>
</g>
<g>
	<path class="st0" d="M457.3,39.8c0,0,5.8-15.3,19.6-9.2C476.9,30.6,472.9,47,457.3,39.8z"/>
	<path class="st0" d="M459.4,40.2c0,0,0-9.3-8.6-8.8C450.8,31.4,449.6,40.9,459.4,40.2z"/>
</g>
<g>
	<path class="st1" d="M87,60.3c0,3.6-0.5,7.1-1.4,10.4c-0.9,3.3-2.3,6.5-4,9.4c-1.7,2.9-3.8,5.6-6.2,8c-2.4,2.4-5.1,4.5-8,6.2
		c-2.9,1.7-6,3-9.4,4c-3.4,0.9-6.9,1.4-10.5,1.4s-7.1-0.5-10.4-1.4s-6.5-2.3-9.4-4c-2.9-1.7-5.6-3.8-8-6.2c-2.4-2.4-4.5-5.1-6.2-8
		c-1.7-2.9-3-6.1-4-9.4c-0.9-3.3-1.4-6.8-1.4-10.4s0.5-7.1,1.4-10.5c0.9-3.4,2.3-6.5,4-9.4c1.7-2.9,3.8-5.6,6.2-8
		c2.4-2.4,5.1-4.5,8-6.2c2.9-1.7,6.1-3,9.4-4c3.3-0.9,6.8-1.4,10.4-1.4s7.1,0.5,10.5,1.4c3.4,0.9,6.5,2.3,9.4,4
		c2.9,1.7,5.6,3.8,8,6.2c2.4,2.4,4.5,5.1,6.2,8c1.7,2.9,3,6,4,9.4C86.5,53.2,87,56.7,87,60.3z M71.9,60.3c0-3.3-0.6-6.5-1.9-9.4
		c-1.3-3-3-5.5-5.2-7.7C62.6,41,60,39.2,57.1,38c-3-1.3-6.1-1.9-9.4-1.9c-3.4,0-6.5,0.6-9.5,1.9c-2.9,1.3-5.5,3-7.7,5.2
		c-2.2,2.2-3.9,4.7-5.2,7.7c-1.3,3-1.9,6.1-1.9,9.4c0,3.3,0.6,6.5,1.9,9.4c1.3,2.9,3,5.5,5.2,7.7c2.2,2.2,4.8,3.9,7.7,5.2
		c2.9,1.3,6.1,1.9,9.5,1.9c3.3,0,6.5-0.6,9.4-1.9c3-1.3,5.5-3,7.7-5.2c2.2-2.2,3.9-4.8,5.2-7.7C71.2,66.7,71.9,63.6,71.9,60.3z"/>
	<path class="st2" d="M105.6,98.1H91.1V41.1h3.5l4.8,6.7c2.3-2.1,5-3.8,8-4.9c3-1.2,6.1-1.7,9.2-1.7h12.8v14.5h-12.8
		c-1.5,0-3,0.3-4.3,0.9c-1.3,0.6-2.5,1.3-3.5,2.3c-1,1-1.8,2.2-2.3,3.5c-0.6,1.3-0.9,2.8-0.9,4.3V98.1z"/>
	<path class="st2" d="M188.2,98.1h-3.5l-5.6-7.8c-1.4,1.2-2.8,2.4-4.4,3.5c-1.5,1.1-3.2,2-4.9,2.8c-1.7,0.8-3.4,1.4-5.2,1.9
		c-1.8,0.5-3.6,0.7-5.4,0.7c-4,0-7.8-0.7-11.3-2c-3.5-1.3-6.6-3.3-9.2-5.9c-2.6-2.6-4.7-5.7-6.2-9.4c-1.5-3.7-2.3-8-2.3-12.7
		c0-4.4,0.8-8.5,2.3-12.2c1.5-3.7,3.6-6.9,6.2-9.5c2.6-2.7,5.7-4.7,9.2-6.2c3.5-1.5,7.3-2.2,11.3-2.2c1.8,0,3.7,0.2,5.5,0.7
		c1.8,0.5,3.6,1.1,5.3,1.9c1.7,0.8,3.3,1.8,4.9,2.9c1.5,1.1,3,2.3,4.3,3.6l5.6-6.7h3.5V98.1z M173.6,69.1c0-2-0.4-3.9-1.1-5.8
		c-0.8-1.9-1.8-3.5-3.1-4.9c-1.3-1.4-2.8-2.6-4.6-3.5c-1.8-0.9-3.6-1.3-5.6-1.3c-2,0-3.9,0.3-5.6,1c-1.8,0.7-3.3,1.7-4.6,3
		c-1.3,1.3-2.3,2.9-3.1,4.9c-0.7,1.9-1.1,4.1-1.1,6.6s0.4,4.7,1.1,6.6c0.7,1.9,1.8,3.6,3.1,4.9c1.3,1.3,2.8,2.3,4.6,3s3.6,1,5.6,1
		c2,0,3.9-0.4,5.6-1.3c1.8-0.9,3.3-2,4.6-3.5c1.3-1.4,2.3-3.1,3.1-4.9C173.2,73,173.6,71.1,173.6,69.1z"/>
	<path class="st2" d="M208.5,98.1H194V41.1h3.5l4.8,5.5c2.3-2.1,5-3.8,7.9-4.9c3-1.2,6-1.7,9.3-1.7c3.5,0,6.7,0.7,9.8,2
		c3.1,1.3,5.8,3.2,8.1,5.5c2.3,2.3,4.1,5,5.4,8.1c1.3,3.1,2,6.4,2,9.9v32.5h-14.5V65.5c0-1.5-0.3-2.9-0.9-4.2
		c-0.6-1.3-1.3-2.5-2.3-3.5c-1-1-2.1-1.8-3.5-2.3c-1.3-0.6-2.7-0.9-4.2-0.9c-1.5,0-3,0.3-4.3,0.9c-1.3,0.6-2.5,1.3-3.5,2.3
		c-1,1-1.8,2.2-2.3,3.5c-0.6,1.3-0.9,2.7-0.9,4.2V98.1z"/>
	<path class="st2" d="M306,90.9c0,4-0.8,7.8-2.3,11.3c-1.5,3.5-3.6,6.6-6.2,9.2c-2.6,2.6-5.7,4.7-9.2,6.2c-3.5,1.5-7.3,2.3-11.3,2.3
		l-7.3-0.1v-14.5l7.2,0.1c2.3,0,4.2-0.3,5.8-0.9c1.6-0.6,2.9-1.4,4-2.4c1.1-1,2-2.2,2.6-3.5c0.7-1.3,1.2-2.7,1.6-4.1
		c-0.6,0.9-1.4,1.7-2.4,2.3c-1.1,0.6-2.2,1.1-3.5,1.4c-1.3,0.4-2.6,0.6-4,0.8c-1.4,0.1-2.7,0.2-3.9,0.2c-4,0-7.8-0.7-11.3-2.1
		c-3.5-1.4-6.6-3.4-9.2-5.9c-2.6-2.6-4.7-5.7-6.2-9.4c-1.5-3.7-2.3-7.9-2.3-12.6c0-4.3,0.8-8.3,2.3-12c1.5-3.7,3.6-6.9,6.2-9.6
		c2.6-2.7,5.7-4.8,9.2-6.3c3.5-1.5,7.3-2.3,11.3-2.3c1.8,0,3.7,0.2,5.5,0.7c1.8,0.5,3.6,1.1,5.3,1.9c1.7,0.8,3.3,1.8,4.9,2.9
		c1.5,1.1,3,2.3,4.3,3.6l5.6-6.7h3.5V90.9z M291.4,69.1c0-2-0.4-3.9-1.1-5.8c-0.8-1.9-1.8-3.5-3.1-4.9c-1.3-1.4-2.8-2.6-4.6-3.5
		c-1.8-0.9-3.6-1.3-5.6-1.3c-2,0-3.9,0.3-5.6,1c-1.8,0.7-3.3,1.7-4.6,3c-1.3,1.3-2.3,2.9-3.1,4.9c-0.7,1.9-1.1,4.1-1.1,6.6
		c0,2.4,0.4,4.5,1.1,6.4c0.7,1.9,1.8,3.5,3.1,4.9c1.3,1.3,2.8,2.4,4.6,3.1c1.8,0.7,3.6,1.1,5.6,1.1c2,0,3.9-0.4,5.6-1.3
		c1.8-0.9,3.3-2,4.6-3.5c1.3-1.4,2.3-3.1,3.1-4.9C291,73,291.4,71.1,291.4,69.1z"/>
	<path class="st2" d="M335.1,84.1c0.6,0.2,1.1,0.3,1.7,0.3c0.6,0.1,1.1,0.1,1.7,0.1c1.4,0,2.8-0.2,4.1-0.6c1.3-0.4,2.5-0.9,3.7-1.7
		c1.2-0.7,2.2-1.6,3.1-2.7c0.9-1,1.6-2.2,2.2-3.5l10.6,10.7c-1.3,1.9-2.9,3.6-4.6,5.2c-1.8,1.5-3.6,2.8-5.7,3.9
		c-2,1.1-4.2,1.9-6.4,2.4c-2.2,0.5-4.6,0.8-6.9,0.8c-4,0-7.8-0.7-11.3-2.2c-3.5-1.5-6.6-3.6-9.2-6.2c-2.6-2.7-4.7-5.8-6.2-9.5
		c-1.5-3.7-2.3-7.7-2.3-12.1c0-4.5,0.8-8.6,2.3-12.3c1.5-3.7,3.6-6.9,6.2-9.5c2.6-2.6,5.7-4.7,9.2-6.1c3.5-1.5,7.3-2.2,11.3-2.2
		c2.4,0,4.7,0.3,7,0.9c2.3,0.6,4.4,1.4,6.5,2.4c2,1.1,3.9,2.4,5.7,3.9c1.8,1.5,3.3,3.3,4.7,5.2L335.1,84.1z M342.5,54.2
		c-0.7-0.2-1.3-0.4-2-0.5c-0.7-0.1-1.3-0.1-2-0.1c-2,0-3.9,0.4-5.6,1.1c-1.8,0.7-3.3,1.8-4.6,3.1c-1.3,1.3-2.3,3-3.1,4.9
		c-0.7,1.9-1.1,4-1.1,6.4c0,0.5,0,1.1,0.1,1.8s0.1,1.4,0.3,2c0.1,0.7,0.3,1.4,0.5,2c0.2,0.6,0.4,1.2,0.7,1.7L342.5,54.2z"/>
	<path class="st2" d="M422.5,98.1h-53.3V21.9h15.2v60.9h38.1V98.1z"/>
	<path class="st1" d="M481.4,69.1c0,4.3-0.8,8.2-2.3,11.9c-1.5,3.7-3.6,6.8-6.2,9.5c-2.6,2.7-5.7,4.8-9.2,6.3s-7.3,2.3-11.3,2.3
		c-4,0-7.8-0.8-11.3-2.3c-3.5-1.5-6.6-3.6-9.2-6.3c-2.6-2.7-4.7-5.8-6.2-9.5c-1.5-3.7-2.3-7.6-2.3-11.9c0-4.3,0.8-8.3,2.3-12
		c1.5-3.7,3.6-6.9,6.2-9.5c2.6-2.7,5.7-4.8,9.2-6.3c3.5-1.5,7.3-2.3,11.3-2.3c4,0,7.8,0.7,11.3,2.2s6.6,3.5,9.2,6.1
		c2.6,2.6,4.7,5.8,6.2,9.5C480.6,60.4,481.4,64.6,481.4,69.1z M466.8,69.1c0-2.3-0.4-4.5-1.1-6.4c-0.8-1.9-1.8-3.5-3.1-4.9
		c-1.3-1.4-2.8-2.4-4.6-3.1c-1.8-0.7-3.6-1.1-5.6-1.1c-2,0-3.9,0.4-5.6,1.1c-1.8,0.7-3.3,1.8-4.6,3.1c-1.3,1.4-2.3,3-3.1,4.9
		c-0.7,1.9-1.1,4-1.1,6.4c0,2.2,0.4,4.2,1.1,6.1c0.7,1.9,1.8,3.5,3.1,4.9c1.3,1.4,2.8,2.5,4.6,3.3c1.8,0.8,3.6,1.2,5.6,1.2
		c2,0,3.9-0.4,5.6-1.1s3.3-1.8,4.6-3.1c1.3-1.3,2.3-3,3.1-4.9C466.4,73.5,466.8,71.4,466.8,69.1z"/>
	<path class="st2" d="M542.4,98.1h-3.5l-5.6-7.8c-1.4,1.2-2.8,2.4-4.4,3.5c-1.5,1.1-3.2,2-4.9,2.8s-3.4,1.4-5.2,1.9
		c-1.8,0.5-3.6,0.7-5.4,0.7c-4,0-7.8-0.8-11.3-2.3c-3.5-1.5-6.6-3.6-9.2-6.3c-2.6-2.7-4.7-5.8-6.2-9.5c-1.5-3.7-2.3-7.7-2.3-12
		c0-4.3,0.8-8.3,2.3-12c1.5-3.7,3.6-6.9,6.2-9.6c2.6-2.7,5.7-4.8,9.2-6.3c3.5-1.5,7.3-2.3,11.3-2.3c1.3,0,2.6,0.1,4,0.3
		c1.4,0.2,2.7,0.6,4,1c1.3,0.5,2.5,1.1,3.6,1.9c1.1,0.8,2.1,1.7,2.9,2.9V18.5h14.6V98.1z M527.8,69.1c0-2-0.4-3.9-1.1-5.8
		c-0.8-1.9-1.8-3.5-3.1-4.9c-1.3-1.4-2.8-2.6-4.6-3.5c-1.8-0.9-3.6-1.3-5.6-1.3c-2,0-3.9,0.4-5.6,1.1c-1.8,0.7-3.3,1.7-4.6,3.1
		c-1.3,1.3-2.3,2.9-3.1,4.9s-1.1,4.1-1.1,6.5c0,2.1,0.4,4.1,1.1,6c0.7,1.9,1.8,3.5,3.1,4.9c1.3,1.4,2.8,2.5,4.6,3.3
		c1.8,0.8,3.6,1.2,5.6,1.2c2,0,3.9-0.4,5.6-1.3c1.8-0.9,3.3-2,4.6-3.5c1.3-1.4,2.3-3.1,3.1-4.9C527.4,73,527.8,71.1,527.8,69.1z"/>
	<path class="st2" d="M603.8,90.9c0,4-0.8,7.8-2.3,11.3c-1.5,3.5-3.6,6.6-6.2,9.2c-2.6,2.6-5.7,4.7-9.2,6.2
		c-3.5,1.5-7.3,2.3-11.3,2.3l-7.3-0.1v-14.5l7.2,0.1c2.3,0,4.2-0.3,5.8-0.9c1.6-0.6,2.9-1.4,4-2.4c1.1-1,2-2.2,2.6-3.5
		c0.7-1.3,1.2-2.7,1.6-4.1c-0.6,0.9-1.4,1.7-2.4,2.3c-1.1,0.6-2.2,1.1-3.5,1.4c-1.3,0.4-2.6,0.6-4,0.8c-1.4,0.1-2.7,0.2-3.9,0.2
		c-4,0-7.8-0.7-11.3-2.1c-3.5-1.4-6.6-3.4-9.2-5.9c-2.6-2.6-4.7-5.7-6.2-9.4c-1.5-3.7-2.3-7.9-2.3-12.6c0-4.3,0.8-8.3,2.3-12
		c1.5-3.7,3.6-6.9,6.2-9.6c2.6-2.7,5.7-4.8,9.2-6.3c3.5-1.5,7.3-2.3,11.3-2.3c1.8,0,3.7,0.2,5.5,0.7c1.8,0.5,3.6,1.1,5.3,1.9
		c1.7,0.8,3.3,1.8,4.9,2.9c1.5,1.1,3,2.3,4.3,3.6l5.6-6.7h3.5V90.9z M589.2,69.1c0-2-0.4-3.9-1.1-5.8c-0.8-1.9-1.8-3.5-3.1-4.9
		c-1.3-1.4-2.8-2.6-4.6-3.5c-1.8-0.9-3.6-1.3-5.6-1.3s-3.9,0.3-5.6,1c-1.8,0.7-3.3,1.7-4.6,3c-1.3,1.3-2.3,2.9-3.1,4.9
		c-0.7,1.9-1.1,4.1-1.1,6.6c0,2.4,0.4,4.5,1.1,6.4c0.7,1.9,1.8,3.5,3.1,4.9c1.3,1.3,2.8,2.4,4.6,3.1c1.8,0.7,3.6,1.1,5.6,1.1
		s3.9-0.4,5.6-1.3c1.8-0.9,3.3-2,4.6-3.5s2.3-3.1,3.1-4.9C588.8,73,589.2,71.1,589.2,69.1z"/>
	<path class="st2" d="M632.3,84.1c0.6,0.2,1.1,0.3,1.7,0.3c0.6,0.1,1.1,0.1,1.7,0.1c1.4,0,2.8-0.2,4.1-0.6c1.3-0.4,2.5-0.9,3.7-1.7
		c1.2-0.7,2.2-1.6,3.1-2.7c0.9-1,1.6-2.2,2.2-3.5l10.6,10.7c-1.3,1.9-2.9,3.6-4.6,5.2c-1.8,1.5-3.6,2.8-5.7,3.9
		c-2,1.1-4.2,1.9-6.4,2.4c-2.2,0.5-4.6,0.8-6.9,0.8c-4,0-7.8-0.7-11.3-2.2c-3.5-1.5-6.6-3.6-9.2-6.2c-2.6-2.7-4.7-5.8-6.2-9.5
		c-1.5-3.7-2.3-7.7-2.3-12.1c0-4.5,0.8-8.6,2.3-12.3c1.5-3.7,3.6-6.9,6.2-9.5c2.6-2.6,5.7-4.7,9.2-6.1c3.5-1.5,7.3-2.2,11.3-2.2
		c2.4,0,4.7,0.3,7,0.9c2.3,0.6,4.4,1.4,6.5,2.4c2,1.1,3.9,2.4,5.7,3.9c1.8,1.5,3.3,3.3,4.7,5.2L632.3,84.1z M639.7,54.2
		c-0.7-0.2-1.3-0.4-2-0.5c-0.7-0.1-1.3-0.1-2-0.1c-2,0-3.9,0.4-5.6,1.1c-1.8,0.7-3.3,1.8-4.6,3.1c-1.3,1.3-2.3,3-3.1,4.9
		c-0.7,1.9-1.1,4-1.1,6.4c0,0.5,0,1.1,0.1,1.8s0.1,1.4,0.3,2c0.1,0.7,0.3,1.4,0.5,2c0.2,0.6,0.4,1.2,0.7,1.7L639.7,54.2z"/>
</g>
</svg>
